<svg width="24" height="24" viewBox="0 0 24 24" fill="none" xmlns="http://www.w3.org/2000/svg">
<path d="M19.4697 20.5303C19.7626 20.8232 20.2374 20.8232 20.5303 20.5303C20.8232 20.2374 20.8232 19.7626 20.5303 19.4697L19.4697 20.5303ZM17.3676 11.0588C17.3676 14.5431 14.5431 17.3676 11.0588 17.3676V18.8676C15.3715 18.8676 18.8676 15.3715 18.8676 11.0588H17.3676ZM11.0588 17.3676C7.57456 17.3676 4.75 14.5431 4.75 11.0588H3.25C3.25 15.3715 6.74613 18.8676 11.0588 18.8676V17.3676ZM4.75 11.0588C4.75 7.57456 7.57456 4.75 11.0588 4.75V3.25C6.74613 3.25 3.25 6.74613 3.25 11.0588H4.75ZM11.0588 4.75C14.5431 4.75 17.3676 7.57456 17.3676 11.0588H18.8676C18.8676 6.74613 15.3715 3.25 11.0588 3.25V4.75ZM20.5303 19.4697L16.5891 15.5284L15.5284 16.5891L19.4697 20.5303L20.5303 19.4697Z" fill="#667A8B"/>
</svg>
