<svg width="24" height="24" viewBox="0 0 24 24" fill="none" xmlns="http://www.w3.org/2000/svg">
<path d="M1.83254 2.99658C1.83254 1.39887 3.11482 0.0754395 4.73311 0.0754395H19.2668C20.8851 0.0754395 22.1674 1.39887 22.1674 2.99658V21.0034C22.1674 22.5994 20.8851 23.9246 19.2668 23.9246H4.73311C4.35085 23.9232 3.9726 23.8466 3.61995 23.6991C3.26731 23.5515 2.94717 23.336 2.67783 23.0647C2.40849 22.7935 2.19521 22.4718 2.05017 22.1182C1.90514 21.7645 1.83118 21.3857 1.83254 21.0034V2.99658Z" fill="#8DD4FE"/>
<path fill-rule="evenodd" clip-rule="evenodd" d="M4.40393 2.99656C4.40393 2.78742 4.56679 2.64685 4.73307 2.64685H19.2668C19.4331 2.64685 19.5959 2.78742 19.5959 2.99656V8.85256H4.40565V2.99656H4.40393ZM14.5096 4.80342C14.2255 4.80342 13.953 4.9163 13.752 5.11724C13.5511 5.31817 13.4382 5.59069 13.4382 5.87485C13.4382 6.15901 13.5511 6.43153 13.752 6.63246C13.953 6.8334 14.2255 6.94628 14.5096 6.94628H16.9422C17.0829 6.94628 17.2222 6.91857 17.3522 6.86472C17.4822 6.81088 17.6003 6.73196 17.6998 6.63246C17.7993 6.53297 17.8782 6.41486 17.9321 6.28487C17.9859 6.15488 18.0136 6.01555 18.0136 5.87485C18.0136 5.73415 17.9859 5.59482 17.9321 5.46483C17.8782 5.33484 17.7993 5.21673 17.6998 5.11724C17.6003 5.01774 17.4822 4.93882 17.3522 4.88498C17.2222 4.83114 17.0829 4.80342 16.9422 4.80342H14.5096Z" fill="#0193EB"/>
<path fill-rule="evenodd" clip-rule="evenodd" d="M6.56391 14.9486C6.90491 14.9486 7.23193 14.8131 7.47305 14.572C7.71417 14.3309 7.84963 14.0039 7.84963 13.6629C7.84963 13.3219 7.71417 12.9949 7.47305 12.7537C7.23193 12.5126 6.90491 12.3772 6.56391 12.3772C6.22292 12.3772 5.89589 12.5126 5.65478 12.7537C5.41366 12.9949 5.2782 13.3219 5.2782 13.6629C5.2782 14.0039 5.41366 14.3309 5.65478 14.572C5.89589 14.8131 6.22292 14.9486 6.56391 14.9486ZM11.9999 14.9486C12.3409 14.9486 12.6679 14.8131 12.9091 14.572C13.1502 14.3309 13.2856 14.0039 13.2856 13.6629C13.2856 13.3219 13.1502 12.9949 12.9091 12.7537C12.6679 12.5126 12.3409 12.3772 11.9999 12.3772C11.6589 12.3772 11.3319 12.5126 11.0908 12.7537C10.8497 12.9949 10.7142 13.3219 10.7142 13.6629C10.7142 14.0039 10.8497 14.3309 11.0908 14.572C11.3319 14.8131 11.6589 14.9486 11.9999 14.9486ZM18.7199 13.6629C18.7199 14.0039 18.5845 14.3309 18.3433 14.572C18.1022 14.8131 17.7752 14.9486 17.4342 14.9486C17.0932 14.9486 16.7662 14.8131 16.5251 14.572C16.2839 14.3309 16.1485 14.0039 16.1485 13.6629C16.1485 13.3219 16.2839 12.9949 16.5251 12.7537C16.7662 12.5126 17.0932 12.3772 17.4342 12.3772C17.7752 12.3772 18.1022 12.5126 18.3433 12.7537C18.5845 12.9949 18.7199 13.3219 18.7199 13.6629ZM6.56563 20.4737C6.90662 20.4737 7.23365 20.3383 7.47476 20.0972C7.71588 19.856 7.85134 19.529 7.85134 19.188C7.85134 18.847 7.71588 18.52 7.47476 18.2789C7.23365 18.0378 6.90662 17.9023 6.56563 17.9023C6.22463 17.9023 5.89761 18.0378 5.65649 18.2789C5.41537 18.52 5.27991 18.847 5.27991 19.188C5.27991 19.529 5.41537 19.856 5.65649 20.0972C5.89761 20.3383 6.22463 20.4737 6.56563 20.4737ZM13.2873 19.188C13.2873 19.529 13.1519 19.856 12.9108 20.0972C12.6696 20.3383 12.3426 20.4737 12.0016 20.4737C11.6606 20.4737 11.3336 20.3383 11.0925 20.0972C10.8514 19.856 10.7159 19.529 10.7159 19.188C10.7159 18.847 10.8514 18.52 11.0925 18.2789C11.3336 18.0378 11.6606 17.9023 12.0016 17.9023C12.3426 17.9023 12.6696 18.0378 12.9108 18.2789C13.1519 18.52 13.2873 18.847 13.2873 19.188ZM17.4359 20.4737C17.7769 20.4737 18.1039 20.3383 18.345 20.0972C18.5862 19.856 18.7216 19.529 18.7216 19.188C18.7216 18.847 18.5862 18.52 18.345 18.2789C18.1039 18.0378 17.7769 17.9023 17.4359 17.9023C17.0949 17.9023 16.7679 18.0378 16.5268 18.2789C16.2857 18.52 16.1502 18.847 16.1502 19.188C16.1502 19.529 16.2857 19.856 16.5268 20.0972C16.7679 20.3383 17.0949 20.4737 17.4359 20.4737Z" fill="#0193EB"/>
</svg>
