<svg width="24" height="24" viewBox="0 0 24 24" fill="none" xmlns="http://www.w3.org/2000/svg">
<g clip-path="url(#clip0_80_3992)">
<path d="M5.05713 12L5.06741 16.3148C5.06741 16.5003 5.12757 16.6807 5.23884 16.8291L5.24056 16.8308L5.24227 16.8325L5.2457 16.8377L5.25427 16.848L5.2817 16.8823L5.36741 16.9851C5.44113 17.0674 5.54741 17.1805 5.68456 17.3125C5.96227 17.5765 6.37027 17.9194 6.92399 18.2605C8.03484 18.9445 9.70799 19.6045 11.9983 19.6045C14.2903 19.6045 15.9651 18.9428 17.0794 18.2605C17.6331 17.9211 18.0428 17.5783 18.3206 17.3143C18.4638 17.1778 18.5994 17.0335 18.7268 16.8823L18.7526 16.8497L18.7611 16.8394L18.7646 16.8343C18.7646 16.8343 18.768 16.8308 18.0857 16.3131L18.768 16.8308C18.8806 16.6817 18.9414 16.4999 18.9411 16.3131V12L13.1914 14.4908C12.8151 14.6538 12.4093 14.7379 11.9991 14.7379C11.589 14.7379 11.1832 14.6538 10.8068 14.4908L5.05713 12Z" fill="#8DD4FE"/>
<path fill-rule="evenodd" clip-rule="evenodd" d="M2.90573 6.9754C3.37887 6.9754 3.76287 7.4554 3.76287 8.04683V19.8583C3.76287 20.4514 3.37887 20.9314 2.90573 20.9314C2.43258 20.9314 2.04858 20.4514 2.04858 19.8583V8.04683C2.04858 7.4554 2.43258 6.9754 2.90573 6.9754Z" fill="#0193EB"/>
<path fill-rule="evenodd" clip-rule="evenodd" d="M2.90736 18.8537C2.62125 18.8422 2.33577 18.8886 2.06805 18.9902C1.80032 19.0917 1.55588 19.2464 1.34938 19.4447C1.14289 19.6431 0.978594 19.8811 0.866366 20.1445C0.754139 20.408 0.696289 20.6914 0.696289 20.9777C0.696289 21.264 0.754139 21.5474 0.866366 21.8109C0.978594 22.0743 1.14289 22.3123 1.34938 22.5107C1.55588 22.7091 1.80032 22.8637 2.06805 22.9652C2.33577 23.0668 2.62125 23.1132 2.90736 23.1017C3.45591 23.0797 3.97466 22.8462 4.35499 22.4503C4.73532 22.0544 4.94772 21.5267 4.94772 20.9777C4.94772 20.4287 4.73532 19.901 4.35499 19.5051C3.97466 19.1092 3.45591 18.8757 2.90736 18.8537Z" fill="#8DD4FE"/>
<path fill-rule="evenodd" clip-rule="evenodd" d="M12.3411 1.52913C12.2335 1.48241 12.1174 1.45831 12 1.45831C11.8826 1.45831 11.7665 1.48241 11.6589 1.52913L0.515996 6.35655C0.362392 6.42291 0.231569 6.53278 0.139661 6.6726C0.0477532 6.81242 -0.0012207 6.97609 -0.0012207 7.14341C-0.0012207 7.31074 0.0477532 7.4744 0.139661 7.61422C0.231569 7.75405 0.362392 7.86391 0.515996 7.93027L11.6589 12.7577C11.7665 12.8044 11.8826 12.8285 12 12.8285C12.1174 12.8285 12.2335 12.8044 12.3411 12.7577L23.484 7.93027C23.6376 7.86391 23.7684 7.75405 23.8603 7.61422C23.9522 7.4744 24.0012 7.31074 24.0012 7.14341C24.0012 6.97609 23.9522 6.81242 23.8603 6.6726C23.7684 6.53278 23.6376 6.42291 23.484 6.35655L12.3411 1.52913Z" fill="#8DD4FE"/>
<path fill-rule="evenodd" clip-rule="evenodd" d="M5.05713 9.89825L11.6588 12.7577C11.7665 12.8044 11.8826 12.8285 12 12.8285C12.1173 12.8285 12.2335 12.8044 12.3411 12.7577L18.9411 9.89825V15.8057V12L13.1914 14.4908C12.8151 14.6538 12.4093 14.7379 11.9991 14.7379C11.589 14.7379 11.1832 14.6538 10.8068 14.4908L5.05713 12V9.89825ZM5.05713 12L5.0657 15.8057H5.05884V12H5.05713Z" fill="#0193EB"/>
</g>
<defs>
<clipPath id="clip0_80_3992">
<rect width="24" height="24" fill="white"/>
</clipPath>
</defs>
</svg>
