<svg width="24" height="24" viewBox="0 0 24 24" fill="none" xmlns="http://www.w3.org/2000/svg">
<path d="M3.42859 22.2857V12L12 3.42859L20.5714 12V22.2857C20.5714 22.5109 20.5271 22.7338 20.441 22.9418C20.3548 23.1497 20.2285 23.3387 20.0693 23.4979C19.9102 23.6571 19.7212 23.7834 19.5132 23.8695C19.3052 23.9557 19.0823 24 18.8572 24H5.14287C4.68822 24 4.25218 23.8194 3.93069 23.4979C3.6092 23.1764 3.42859 22.7404 3.42859 22.2857Z" fill="#8DD4FE"/>
<path fill-rule="evenodd" clip-rule="evenodd" d="M10.7881 2.21658C11.1095 1.8952 11.5455 1.71466 12.0001 1.71466C12.4546 1.71466 12.8906 1.8952 13.2121 2.21658L23.4978 12.5023C23.81 12.8256 23.9828 13.2586 23.9789 13.7081C23.975 14.1576 23.7947 14.5876 23.4769 14.9054C23.159 15.2233 22.7291 15.4035 22.2796 15.4074C21.8301 15.4114 21.3971 15.2386 21.0738 14.9263L12.0001 5.85258L2.92634 14.9263C2.60302 15.2386 2.16999 15.4114 1.72051 15.4074C1.27103 15.4035 0.841063 15.2233 0.523221 14.9054C0.205378 14.5876 0.0250888 14.1576 0.021183 13.7081C0.0172771 13.2586 0.190067 12.8256 0.502338 12.5023L10.7881 2.21658Z" fill="#0193EB"/>
</svg>
