<svg width="24" height="24" viewBox="0 0 24 24" fill="none" xmlns="http://www.w3.org/2000/svg">
<path fill-rule="evenodd" clip-rule="evenodd" d="M6.94616 1.87883C8.60388 2.00226 10.3319 2.81997 11.9862 4.4674C13.6439 2.82511 15.3736 2.01083 17.0364 1.89254C18.9153 1.75711 20.5764 2.51997 21.7747 3.7234C24.1302 6.08911 24.8484 10.3663 21.8776 13.2977L21.857 13.3165L12.5656 21.9085C12.4072 22.055 12.1994 22.1364 11.9836 22.1364C11.7678 22.1364 11.56 22.055 11.4016 21.9085L2.11531 13.3165C2.10657 13.3087 2.098 13.3007 2.08959 13.2925C-0.841836 10.3491 -0.125264 6.07197 2.22159 3.70626C3.41474 2.50283 5.07074 1.74168 6.94616 1.87883Z" fill="#8DD4FE"/>
<path fill-rule="evenodd" clip-rule="evenodd" d="M10.4587 7.13141C10.8701 7.14855 11.2387 7.39884 11.4015 7.7777L13.3798 12.3668L14.5678 10.9028C14.6683 10.7786 14.7952 10.6785 14.9394 10.6096C15.0835 10.5408 15.2412 10.5051 15.401 10.5051H17.9724C18.2565 10.5051 18.5291 10.618 18.73 10.8189C18.9309 11.0199 19.0438 11.2924 19.0438 11.5766C19.0438 11.8607 18.9309 12.1332 18.73 12.3342C18.5291 12.5351 18.2565 12.648 17.9724 12.648H15.9084L13.9284 15.0908C13.8124 15.2343 13.6612 15.3453 13.4897 15.4132C13.3181 15.4811 13.132 15.5036 12.9492 15.4784C12.7664 15.4532 12.5933 15.3813 12.4464 15.2695C12.2996 15.1578 12.1842 15.01 12.1112 14.8406L10.325 10.692L9.59982 12.0737C9.50904 12.247 9.37253 12.3922 9.20511 12.4934C9.03769 12.5946 8.84575 12.6481 8.6501 12.648H6.02553C5.74137 12.648 5.46885 12.5351 5.26792 12.3342C5.06698 12.1332 4.9541 11.8607 4.9541 11.5766C4.9541 11.2924 5.06698 11.0199 5.26792 10.8189C5.46885 10.618 5.74137 10.5051 6.02553 10.5051H8.0021L9.46953 7.7057C9.56319 7.52658 9.70561 7.37761 9.88033 7.27599C10.0551 7.17437 10.255 7.12425 10.457 7.13141H10.4587Z" fill="#0193EB"/>
</svg>
