<svg width="40" height="40" viewBox="0 0 40 40" fill="none" xmlns="http://www.w3.org/2000/svg">
<path fill-rule="evenodd" clip-rule="evenodd" d="M17.9057 12.0428C18.58 13.4371 19.8771 14.5543 21.7943 14.8857C23.2743 15.1428 24.4514 16.2714 24.7714 17.7371L24.8286 17.9886C25.8286 22.5543 31.2886 23.44 34 20.6171H35.7143C36.2771 20.6171 36.8344 20.728 37.3544 20.9434C37.8743 21.1587 38.3468 21.4744 38.7447 21.8724C39.1427 22.2704 39.4584 22.7428 39.6738 23.2628C39.8891 23.7827 40 24.34 40 24.9028V30.6171C40 31.1799 39.8891 31.7372 39.6738 32.2572C39.4584 32.7772 39.1427 33.2496 38.7447 33.6476C38.3468 34.0456 37.8743 34.3612 37.3544 34.5766C36.8344 34.792 36.2771 34.9028 35.7143 34.9028H4.28571C3.14907 34.9028 2.05898 34.4513 1.25526 33.6476C0.451529 32.8439 0 31.7538 0 30.6171V24.9028C0 23.7662 0.451529 22.6761 1.25526 21.8724C2.05898 21.0687 3.14907 20.6171 4.28571 20.6171H7.54286L9.41429 14.9657L9.41714 14.96C9.71349 14.0798 10.2878 13.3197 11.0535 12.7941C11.8192 12.2685 12.735 12.0058 13.6629 12.0457H17.9057V12.0428Z" fill="#8DD4FE"/>
<path fill-rule="evenodd" clip-rule="evenodd" d="M5.70898 35.6201C5.70898 36.7575 6.16082 37.8483 6.96508 38.6526C7.76934 39.4569 8.86016 39.9087 9.99756 39.9087C11.135 39.9087 12.2258 39.4569 13.03 38.6526C13.8343 37.8483 14.2861 36.7575 14.2861 35.6201C14.2861 34.4827 13.8343 33.3919 13.03 32.5876C12.2258 31.7834 11.135 31.3315 9.99756 31.3315C8.86016 31.3315 7.76934 31.7834 6.96508 32.5876C6.16082 33.3919 5.70898 34.4827 5.70898 35.6201ZM25.709 35.6201C25.709 36.1833 25.8199 36.741 26.0354 37.2613C26.251 37.7816 26.5668 38.2544 26.9651 38.6526C27.3633 39.0508 27.8361 39.3667 28.3564 39.5822C28.8767 39.7978 29.4344 39.9087 29.9976 39.9087C30.5607 39.9087 31.1184 39.7978 31.6387 39.5822C32.159 39.3667 32.6318 39.0508 33.03 38.6526C33.4283 38.2544 33.7442 37.7816 33.9597 37.2613C34.1752 36.741 34.2861 36.1833 34.2861 35.6201C34.2861 34.4827 33.8343 33.3919 33.03 32.5876C32.2258 31.7834 31.135 31.3315 29.9976 31.3315C28.8602 31.3315 27.7693 31.7834 26.9651 32.5876C26.1608 33.3919 25.709 34.4827 25.709 35.6201Z" fill="#0193EB"/>
<path fill-rule="evenodd" clip-rule="evenodd" d="M32.3319 1.87144C31.7891 -0.511416 28.3833 -0.499988 27.8605 1.89144L27.8405 1.98573L27.8005 2.17144C27.5069 3.48527 26.83 4.6824 25.8555 5.61116C24.8809 6.53993 23.6526 7.15852 22.3262 7.38858C19.8405 7.82287 19.8405 11.3943 22.3262 11.8257C23.6578 12.0569 24.8903 12.6797 25.8664 13.6146C26.8424 14.5494 27.5178 15.7539 27.8062 17.0743L27.8633 17.3229C28.3833 19.7143 31.7862 19.7286 32.3291 17.3429L32.3976 17.0514C32.698 15.7362 33.3803 14.5391 34.3589 13.6104C35.3374 12.6817 36.5685 12.0628 37.8976 11.8314C40.3891 11.3972 40.3891 7.82001 37.8976 7.38573C36.5368 7.1498 35.2792 6.50781 34.29 5.54406C33.3007 4.58031 32.6261 3.33989 32.3548 1.98573L32.3319 1.87144Z" fill="#0193EB"/>
</svg>
