<svg width="34" height="40" viewBox="0 0 34 40" fill="none" xmlns="http://www.w3.org/2000/svg">
<path d="M0.0547179 4.9943C0.0547179 2.33145 2.19186 0.125732 4.889 0.125732H29.1119C31.809 0.125732 33.9461 2.33145 33.9461 4.9943V35.0057C33.9461 37.6657 31.809 39.8743 29.1119 39.8743H4.889C4.2519 39.8721 3.62148 39.7443 3.03374 39.4985C2.446 39.2526 1.91244 38.8933 1.46354 38.4412C1.01463 37.9892 0.659168 37.4531 0.417443 36.8636C0.175717 36.2741 0.0524627 35.6428 0.0547179 35.0057V4.9943Z" fill="#8DD4FE"/>
<path fill-rule="evenodd" clip-rule="evenodd" d="M4.34082 4.99423C4.34082 4.64566 4.61225 4.41138 4.88939 4.41138H29.1123C29.3894 4.41138 29.6608 4.64566 29.6608 4.99423V14.7542H4.34368V4.99423H4.34082ZM21.1837 8.00566C20.7101 8.00566 20.2559 8.1938 19.921 8.52869C19.5861 8.86357 19.398 9.31778 19.398 9.79138C19.398 10.265 19.5861 10.7192 19.921 11.0541C20.2559 11.389 20.7101 11.5771 21.1837 11.5771H25.238C25.4725 11.5771 25.7047 11.5309 25.9213 11.4412C26.138 11.3514 26.3348 11.2199 26.5007 11.0541C26.6665 10.8882 26.798 10.6914 26.8878 10.4747C26.9775 10.2581 27.0237 10.0259 27.0237 9.79138C27.0237 9.55687 26.9775 9.32467 26.8878 9.10801C26.798 8.89136 26.6665 8.69451 26.5007 8.52869C26.3348 8.36287 26.138 8.23133 25.9213 8.14159C25.7047 8.05185 25.4725 8.00566 25.238 8.00566H21.1837Z" fill="#0193EB"/>
<path fill-rule="evenodd" clip-rule="evenodd" d="M7.94071 24.9144C8.50903 24.9144 9.05407 24.6886 9.45594 24.2867C9.8578 23.8849 10.0836 23.3398 10.0836 22.7715C10.0836 22.2032 9.8578 21.6582 9.45594 21.2563C9.05407 20.8544 8.50903 20.6287 7.94071 20.6287C7.37239 20.6287 6.82734 20.8544 6.42548 21.2563C6.02362 21.6582 5.79785 22.2032 5.79785 22.7715C5.79785 23.3398 6.02362 23.8849 6.42548 24.2867C6.82734 24.6886 7.37239 24.9144 7.94071 24.9144ZM17.0007 24.9144C17.569 24.9144 18.1141 24.6886 18.5159 24.2867C18.9178 23.8849 19.1436 23.3398 19.1436 22.7715C19.1436 22.2032 18.9178 21.6582 18.5159 21.2563C18.1141 20.8544 17.569 20.6287 17.0007 20.6287C16.4324 20.6287 15.8873 20.8544 15.4855 21.2563C15.0836 21.6582 14.8579 22.2032 14.8579 22.7715C14.8579 23.3398 15.0836 23.8849 15.4855 24.2867C15.8873 24.6886 16.4324 24.9144 17.0007 24.9144ZM28.2007 22.7715C28.2007 23.3398 27.9749 23.8849 27.5731 24.2867C27.1712 24.6886 26.6262 24.9144 26.0579 24.9144C25.4895 24.9144 24.9445 24.6886 24.5426 24.2867C24.1408 23.8849 23.915 23.3398 23.915 22.7715C23.915 22.2032 24.1408 21.6582 24.5426 21.2563C24.9445 20.8544 25.4895 20.6287 26.0579 20.6287C26.6262 20.6287 27.1712 20.8544 27.5731 21.2563C27.9749 21.6582 28.2007 22.2032 28.2007 22.7715ZM7.94357 34.1229C8.51189 34.1229 9.05693 33.8972 9.4588 33.4953C9.86066 33.0935 10.0864 32.5484 10.0864 31.9801C10.0864 31.4118 9.86066 30.8667 9.4588 30.4649C9.05693 30.063 8.51189 29.8372 7.94357 29.8372C7.37525 29.8372 6.8302 30.063 6.42834 30.4649C6.02647 30.8667 5.80071 31.4118 5.80071 31.9801C5.80071 32.5484 6.02647 33.0935 6.42834 33.4953C6.8302 33.8972 7.37525 34.1229 7.94357 34.1229ZM19.1464 31.9801C19.1464 32.5484 18.9207 33.0935 18.5188 33.4953C18.1169 33.8972 17.5719 34.1229 17.0036 34.1229C16.4352 34.1229 15.8902 33.8972 15.4883 33.4953C15.0865 33.0935 14.8607 32.5484 14.8607 31.9801C14.8607 31.4118 15.0865 30.8667 15.4883 30.4649C15.8902 30.063 16.4352 29.8372 17.0036 29.8372C17.5719 29.8372 18.1169 30.063 18.5188 30.4649C18.9207 30.8667 19.1464 31.4118 19.1464 31.9801ZM26.0607 34.1229C26.629 34.1229 27.1741 33.8972 27.5759 33.4953C27.9778 33.0935 28.2036 32.5484 28.2036 31.9801C28.2036 31.4118 27.9778 30.8667 27.5759 30.4649C27.1741 30.063 26.629 29.8372 26.0607 29.8372C25.4924 29.8372 24.9473 30.063 24.5455 30.4649C24.1436 30.8667 23.9179 31.4118 23.9179 31.9801C23.9179 32.5484 24.1436 33.0935 24.5455 33.4953C24.9473 33.8972 25.4924 34.1229 26.0607 34.1229Z" fill="#0193EB"/>
</svg>
