<svg width="40" height="40" viewBox="0 0 40 40" fill="none" xmlns="http://www.w3.org/2000/svg">
<path fill-rule="evenodd" clip-rule="evenodd" d="M19.9993 0.142822C19.431 0.142822 18.8859 0.368587 18.4841 0.770451C18.0822 1.17231 17.8564 1.71736 17.8564 2.28568V9.15996L19.3107 7.92854C19.5687 7.71024 19.8957 7.59045 20.2336 7.59045C20.5715 7.59045 20.8985 7.71024 21.1564 7.92854L22.1422 8.76282V4.43139H23.9164C24.4848 4.43139 25.0298 4.20563 25.4317 3.80377C25.8335 3.4019 26.0593 2.85686 26.0593 2.28854C26.0593 1.72022 25.8335 1.17517 25.4317 0.773308C25.0298 0.371444 24.4848 0.145679 23.9164 0.145679H19.9993V0.142822Z" fill="#8DD4FE"/>
<path fill-rule="evenodd" clip-rule="evenodd" d="M19.3112 7.92842C19.5691 7.71012 19.8961 7.59033 20.234 7.59033C20.5719 7.59033 20.8989 7.71012 21.1569 7.92842L35.594 20.1684H4.87402L19.314 7.92842H19.3112Z" fill="#0193EB"/>
<path fill-rule="evenodd" clip-rule="evenodd" d="M2.63407 20.1713C2.06575 20.1713 1.5207 20.3971 1.11884 20.7989C0.716976 21.2008 0.491211 21.7459 0.491211 22.3142C0.491211 22.8825 0.716976 23.4275 1.11884 23.8294C1.5207 24.2313 2.06575 24.457 2.63407 24.457H3.19407V35.697H2.63407C2.06575 35.697 1.5207 35.9228 1.11884 36.3247C0.716976 36.7265 0.491211 37.2716 0.491211 37.8399C0.491211 38.4082 0.716976 38.9533 1.11884 39.3551C1.5207 39.757 2.06575 39.9827 2.63407 39.9827H37.8341C38.4024 39.9827 38.9474 39.757 39.3493 39.3551C39.7512 38.9533 39.9769 38.4082 39.9769 37.8399C39.9769 37.2716 39.7512 36.7265 39.3493 36.3247C38.9474 35.9228 38.4024 35.697 37.8341 35.697H37.2741V24.4542H37.8341C38.4024 24.4542 38.9474 24.2284 39.3493 23.8265C39.7512 23.4247 39.9769 22.8796 39.9769 22.3113C39.9769 21.743 39.7512 21.1979 39.3493 20.7961C38.9474 20.3942 38.4024 20.1685 37.8341 20.1685H2.63407V20.1713Z" fill="#8DD4FE"/>
<path fill-rule="evenodd" clip-rule="evenodd" d="M28.2455 24.4572H31.8169V35.6972H28.2455V24.4543V24.4572ZM8.18262 24.4572H11.754V35.6972H8.18262V24.4543V24.4572ZM22.734 35.6972H17.414V29.6686C17.414 29.3193 17.4828 28.9734 17.6165 28.6507C17.7502 28.328 17.9461 28.0347 18.1931 27.7877C18.4401 27.5407 18.7334 27.3448 19.0561 27.2111C19.3788 27.0774 19.7247 27.0086 20.074 27.0086C20.4234 27.0086 20.7693 27.0774 21.092 27.2111C21.4147 27.3448 21.7079 27.5407 21.9549 27.7877C22.202 28.0347 22.3979 28.328 22.5316 28.6507C22.6652 28.9734 22.734 29.3193 22.734 29.6686V35.6972Z" fill="#0193EB"/>
</svg>
