<svg width="40" height="37" viewBox="0 0 40 37" fill="none" xmlns="http://www.w3.org/2000/svg">
<path d="M8.42871 18L8.44585 25.1914C8.44585 25.5005 8.54611 25.8013 8.73157 26.0486L8.73443 26.0514L8.73728 26.0543L8.743 26.0629L8.75728 26.08L8.803 26.1371L8.94585 26.3086C9.06871 26.4457 9.24585 26.6343 9.47443 26.8543C9.93728 27.2943 10.6173 27.8657 11.5401 28.4343C13.3916 29.5743 16.1801 30.6743 19.9973 30.6743C23.8173 30.6743 26.6087 29.5714 28.4659 28.4343C29.3887 27.8686 30.0716 27.2971 30.5344 26.8571C30.7731 26.6297 30.9991 26.3893 31.2116 26.1371L31.2544 26.0829L31.2687 26.0657L31.2744 26.0571C31.2744 26.0571 31.2801 26.0514 30.143 25.1886L31.2801 26.0514C31.4678 25.8029 31.5691 25.5 31.5687 25.1886V18L21.9859 22.1514C21.3586 22.4231 20.6823 22.5633 19.9987 22.5633C19.3151 22.5633 18.6388 22.4231 18.0116 22.1514L8.42871 18Z" fill="#8DD4FE"/>
<path fill-rule="evenodd" clip-rule="evenodd" d="M4.84263 9.62573C5.63121 9.62573 6.27121 10.4257 6.27121 11.4114V31.0972C6.27121 32.0857 5.63121 32.8857 4.84263 32.8857C4.05406 32.8857 3.41406 32.0857 3.41406 31.0972V11.4114C3.41406 10.4257 4.05406 9.62573 4.84263 9.62573Z" fill="#0193EB"/>
<path fill-rule="evenodd" clip-rule="evenodd" d="M4.84625 29.423C4.3694 29.4039 3.8936 29.4812 3.44739 29.6505C3.00119 29.8198 2.59378 30.0774 2.24962 30.408C1.90546 30.7387 1.63164 31.1354 1.44459 31.5744C1.25755 32.0135 1.16113 32.4858 1.16113 32.963C1.16113 33.4403 1.25755 33.9126 1.44459 34.3516C1.63164 34.7907 1.90546 35.1874 2.24962 35.518C2.59378 35.8486 3.00119 36.1063 3.44739 36.2755C3.8936 36.4448 4.3694 36.5222 4.84625 36.503C5.7605 36.4663 6.62509 36.0772 7.25897 35.4174C7.89284 34.7575 8.24685 33.878 8.24685 32.963C8.24685 32.048 7.89284 31.1685 7.25897 30.5087C6.62509 29.8488 5.7605 29.4598 4.84625 29.423Z" fill="#8DD4FE"/>
<path fill-rule="evenodd" clip-rule="evenodd" d="M20.5686 0.548685C20.3892 0.470834 20.1957 0.430664 20.0001 0.430664C19.8045 0.430664 19.611 0.470834 19.4315 0.548685L0.860075 8.5944C0.604069 8.705 0.386031 8.8881 0.23285 9.12114C0.0796701 9.35418 -0.00195312 9.62696 -0.00195312 9.90583C-0.00195312 10.1847 0.0796701 10.4575 0.23285 10.6905C0.386031 10.9236 0.604069 11.1067 0.860075 11.2173L19.4315 19.263C19.611 19.3408 19.8045 19.381 20.0001 19.381C20.1957 19.381 20.3892 19.3408 20.5686 19.263L39.1401 11.2173C39.3961 11.1067 39.6141 10.9236 39.7673 10.6905C39.9205 10.4575 40.0021 10.1847 40.0021 9.90583C40.0021 9.62696 39.9205 9.35418 39.7673 9.12114C39.6141 8.8881 39.3961 8.705 39.1401 8.5944L20.5686 0.548685Z" fill="#8DD4FE"/>
<path fill-rule="evenodd" clip-rule="evenodd" d="M8.42871 14.4973L19.4316 19.263C19.611 19.3409 19.8045 19.381 20.0001 19.381C20.1957 19.381 20.3893 19.3409 20.5687 19.263L31.5687 14.4973V24.343V18.0002L21.9859 22.1516C21.3586 22.4233 20.6823 22.5634 19.9987 22.5634C19.3151 22.5634 18.6388 22.4233 18.0116 22.1516L8.42871 18.0002V14.4973ZM8.42871 18.0002L8.443 24.343H8.43157V18.0002H8.42871Z" fill="#0193EB"/>
</svg>
