<svg width="40" height="34" viewBox="0 0 40 34" fill="none" xmlns="http://www.w3.org/2000/svg">
<path fill-rule="evenodd" clip-rule="evenodd" d="M11.5768 0.131501C14.3396 0.337215 17.2196 1.70007 19.9768 4.44579C22.7396 1.70864 25.6225 0.351501 28.3939 0.154358C31.5253 -0.0713561 34.2939 1.20007 36.2911 3.20579C40.2168 7.14864 41.4139 14.2772 36.4625 19.1629L36.4282 19.1944L20.9425 33.5144C20.6785 33.7585 20.3321 33.8942 19.9725 33.8942C19.6129 33.8942 19.2665 33.7585 19.0025 33.5144L3.52535 19.1944C3.51078 19.1813 3.4965 19.168 3.48249 19.1544C-1.40322 14.2486 -0.208936 7.12007 3.70249 3.17722C5.69106 1.1715 8.45106 -0.0970704 11.5768 0.131501Z" fill="#8DD4FE"/>
<path fill-rule="evenodd" clip-rule="evenodd" d="M17.4311 8.88589C18.1168 8.91446 18.7311 9.3316 19.0026 9.96303L22.2997 17.6116L24.2797 15.1716C24.4471 14.9646 24.6587 14.7976 24.8989 14.6829C25.1392 14.5683 25.402 14.5087 25.6683 14.5087H29.954C30.4276 14.5087 30.8818 14.6969 31.2167 15.0318C31.5516 15.3667 31.7397 15.8209 31.7397 16.2945C31.7397 16.7681 31.5516 17.2223 31.2167 17.5571C30.8818 17.892 30.4276 18.0802 29.954 18.0802H26.514L23.214 22.1516C23.0206 22.3907 22.7687 22.5757 22.4828 22.6889C22.1969 22.8021 21.8866 22.8395 21.582 22.7975C21.2774 22.7556 20.9888 22.6357 20.7441 22.4494C20.4994 22.2632 20.307 22.0169 20.1854 21.7345L17.2083 14.8202L15.9997 17.123C15.8484 17.4119 15.6209 17.6538 15.3419 17.8225C15.0628 17.9913 14.7429 18.0804 14.4168 18.0802H10.0426C9.56895 18.0802 9.11475 17.892 8.77986 17.5571C8.44497 17.2223 8.25684 16.7681 8.25684 16.2945C8.25684 15.8209 8.44497 15.3667 8.77986 15.0318C9.11475 14.6969 9.56895 14.5087 10.0426 14.5087H13.3368L15.7826 9.84303C15.9387 9.5445 16.176 9.29622 16.4672 9.12685C16.7584 8.95749 17.0916 8.87395 17.4283 8.88589H17.4311Z" fill="#0193EB"/>
</svg>
