<svg width="40" height="40" viewBox="0 0 40 40" fill="none" xmlns="http://www.w3.org/2000/svg">
<path d="M26.6663 6.66659C26.6663 4.81659 28.1497 3.33325 29.9997 3.33325C31.8497 3.33325 33.333 4.81659 33.333 6.66659C33.333 8.51659 31.8497 9.99992 29.9997 9.99992C28.1497 9.99992 26.6663 8.51659 26.6663 6.66659ZM33.333 34.9999V26.6666H35.183C36.3163 26.6666 37.1163 25.5499 36.7663 24.4666L33.2663 13.9499C33.0434 13.2861 32.618 12.7088 32.05 12.2993C31.482 11.8897 30.7999 11.6685 30.0997 11.6666H29.8997C29.1988 11.6659 28.5156 11.8862 27.9471 12.2962C27.3786 12.7061 26.9538 13.2847 26.733 13.9499L25.2997 18.2499C27.0997 19.2499 28.333 21.1333 28.333 23.3333V36.6666H31.6663C32.583 36.6666 33.333 35.9166 33.333 34.9999ZM20.833 19.1666C22.2163 19.1666 23.333 18.0499 23.333 16.6666C23.333 15.2833 22.2163 14.1666 20.833 14.1666C19.4497 14.1666 18.333 15.2833 18.333 16.6666C18.333 18.0499 19.4497 19.1666 20.833 19.1666ZM9.16634 9.99992C11.0163 9.99992 12.4997 8.51659 12.4997 6.66659C12.4997 4.81659 11.0163 3.33325 9.16634 3.33325C7.31634 3.33325 5.83301 4.81659 5.83301 6.66659C5.83301 8.51659 7.31634 9.99992 9.16634 9.99992ZM12.4997 34.9999V24.9999H13.333C14.2497 24.9999 14.9997 24.2499 14.9997 23.3333V14.9999C14.9997 13.1666 13.4997 11.6666 11.6663 11.6666H6.66634C4.83301 11.6666 3.33301 13.1666 3.33301 14.9999V23.3333C3.33301 24.2499 4.08301 24.9999 4.99967 24.9999H5.83301V34.9999C5.83301 35.9166 6.58301 36.6666 7.49967 36.6666H10.833C11.7497 36.6666 12.4997 35.9166 12.4997 34.9999ZM16.6663 23.3333V28.3333C16.6663 29.2499 17.4163 29.9999 18.333 29.9999V34.9999C18.333 35.9166 19.083 36.6666 19.9997 36.6666H21.6663C22.583 36.6666 23.333 35.9166 23.333 34.9999V29.9999C24.2497 29.9999 24.9997 29.2499 24.9997 28.3333V23.3333C24.9997 21.9666 23.8663 20.8333 22.4997 20.8333H19.1663C17.7997 20.8333 16.6663 21.9666 16.6663 23.3333Z" fill="#8DD4FE"/>
</svg>
