<svg width="40" height="40" viewBox="0 0 40 40" fill="none" xmlns="http://www.w3.org/2000/svg">
<g clip-path="url(#clip0_579_1134)">
<path fill-rule="evenodd" clip-rule="evenodd" d="M15.7143 5.71429C15.7143 7.22981 15.1122 8.68326 14.0406 9.7549C12.969 10.8265 11.5155 11.4286 10 11.4286C8.48448 11.4286 7.03103 10.8265 5.95939 9.7549C4.88775 8.68326 4.28572 7.22981 4.28572 5.71429C4.28572 4.19876 4.88775 2.74531 5.95939 1.67368C7.03103 0.602039 8.48448 0 10 0C11.5155 0 12.969 0.602039 14.0406 1.67368C15.1122 2.74531 15.7143 4.19876 15.7143 5.71429ZM15.8429 28.4857V28.5714H15.7143L14.4429 38.7486C14.3997 39.094 14.2319 39.4118 13.9709 39.6422C13.71 39.8727 13.3738 39.9999 13.0257 40H6.97143C6.6233 39.9999 6.28718 39.8727 6.02623 39.6422C5.76528 39.4118 5.59746 39.094 5.55429 38.7486L4.28572 28.5714H1.42857C1.04969 28.5714 0.686329 28.4209 0.41842 28.153C0.150511 27.8851 7.32208e-07 27.5217 7.32208e-07 27.1429V24.2857C-0.000934615 21.8402 0.894292 19.4791 2.51638 17.649C4.13846 15.8189 6.37495 14.6466 8.80287 14.3538C11.2308 14.061 13.6818 14.6681 15.6925 16.0602C17.7031 17.4523 19.1339 19.5329 19.7143 21.9086C18.5408 22.5597 17.563 23.513 16.8822 24.6695C16.2014 25.8261 15.8426 27.1437 15.8429 28.4857Z" fill="#8DD4FE"/>
<path fill-rule="evenodd" clip-rule="evenodd" d="M27.6483 22.6771C27.6483 22.4876 27.7236 22.306 27.8576 22.172C27.9915 22.038 28.1732 21.9628 28.3626 21.9628H30.9712C31.1606 21.9628 31.3423 22.038 31.4763 22.172C31.6102 22.306 31.6855 22.4876 31.6855 22.6771V24.5371H27.6483V22.6799V22.6771ZM23.3626 24.5371V22.6799C23.3626 19.9171 25.6026 17.6799 28.3626 17.6799H30.9712C33.7312 17.6799 35.9712 19.9171 35.9712 22.6799V24.5371C38.1512 24.5371 39.9169 26.3085 39.9169 28.4885V36.0514C39.9169 38.2314 38.1483 39.9999 35.9683 39.9999H23.3626C22.3154 39.9999 21.3111 39.5839 20.5706 38.8434C19.8301 38.1029 19.4141 37.0986 19.4141 36.0514V28.4856C19.4141 26.3056 21.1826 24.5371 23.3626 24.5371Z" fill="#0193EB"/>
</g>
<defs>
<clipPath id="clip0_579_1134">
<rect width="40" height="40" fill="white"/>
</clipPath>
</defs>
</svg>
