<svg width="40" height="36" viewBox="0 0 40 36" fill="none" xmlns="http://www.w3.org/2000/svg">
<path d="M14.2853 17.4285C16.5586 17.4285 18.7388 16.5254 20.3462 14.918C21.9537 13.3105 22.8567 11.1304 22.8567 8.85707C22.8567 6.58379 21.9537 4.40361 20.3462 2.79616C18.7388 1.1887 16.5586 0.285645 14.2853 0.285645C12.012 0.285645 9.83183 1.1887 8.22438 2.79616C6.61693 4.40361 5.71387 6.58379 5.71387 8.85707C5.71387 11.1304 6.61693 13.3105 8.22438 14.918C9.83183 16.5254 12.012 17.4285 14.2853 17.4285Z" fill="#8DD4FE"/>
<path d="M0 34.5714C0 30.7826 1.5051 27.1489 4.18419 24.4698C6.86328 21.7907 10.4969 20.2856 14.2857 20.2856C18.0745 20.2856 21.7082 21.7907 24.3872 24.4698C27.0663 27.1489 28.5714 30.7826 28.5714 34.5714C28.5714 34.9502 28.4209 35.3136 28.153 35.5815C27.8851 35.8494 27.5217 35.9999 27.1429 35.9999H1.42857C1.04969 35.9999 0.686328 35.8494 0.418419 35.5815C0.15051 35.3136 0 34.9502 0 34.5714Z" fill="#8DD4FE"/>
<path fill-rule="evenodd" clip-rule="evenodd" d="M31.9372 36H38.5715C38.9504 36 39.3138 35.8495 39.5817 35.5815C39.8496 35.3136 40.0001 34.9503 40.0001 34.5714C40 32.6372 39.6072 30.7231 38.8454 28.9453C38.0836 27.1674 36.9687 25.5627 35.5683 24.2286C34.1678 22.8944 32.5111 21.8585 30.6984 21.1837C28.8857 20.5089 26.9549 20.2092 25.0229 20.3028C27.2359 21.9653 29.0313 24.1201 30.2671 26.5967C31.5029 29.0733 32.1452 31.8036 32.1429 34.5714C32.1429 35.0685 32.0715 35.5485 31.9372 36ZM23.2344 17.0657C24.5146 17.4513 25.8673 17.5321 27.1843 17.3016C28.5013 17.0711 29.7462 16.5357 30.8193 15.7382C31.8925 14.9407 32.7642 13.9032 33.3647 12.7086C33.9653 11.5141 34.2781 10.1956 34.2781 8.85854C34.2781 7.5215 33.9653 6.203 33.3647 5.00843C32.7642 3.81386 31.8925 2.77636 30.8193 1.97884C29.7462 1.18133 28.5013 0.64593 27.1843 0.415436C25.8673 0.184943 24.5146 0.265749 23.2344 0.651396C25.2919 2.88838 26.4323 5.81777 26.4287 8.85711C26.433 11.8974 25.2926 14.828 23.2344 17.0657Z" fill="#0193EB"/>
</svg>
