<svg width="40" height="30" viewBox="0 0 40 30" fill="none" xmlns="http://www.w3.org/2000/svg">
<path d="M0 3.5715C0 2.81374 0.30102 2.08701 0.836838 1.55119C1.37266 1.01537 2.09938 0.714355 2.85714 0.714355H37.1429C37.9006 0.714355 38.6273 1.01537 39.1632 1.55119C39.699 2.08701 40 2.81374 40 3.5715V26.4286C40 26.8038 39.9261 27.1754 39.7825 27.522C39.6389 27.8687 39.4285 28.1836 39.1632 28.4489C38.8979 28.7143 38.5829 28.9247 38.2362 29.0683C37.8896 29.2119 37.5181 29.2858 37.1429 29.2858H2.85714C2.48194 29.2858 2.11041 29.2119 1.76376 29.0683C1.41712 28.9247 1.10215 28.7143 0.836838 28.4489C0.571528 28.1836 0.361072 27.8687 0.217487 27.522C0.0739022 27.1754 0 26.8038 0 26.4286L0 3.5715Z" fill="#8DD4FE"/>
<path fill-rule="evenodd" clip-rule="evenodd" d="M12.8572 15.0001C13.9938 15.0001 15.0839 14.5486 15.8876 13.7449C16.6913 12.9412 17.1429 11.8511 17.1429 10.7144C17.1429 9.57778 16.6913 8.48769 15.8876 7.68397C15.0839 6.88024 13.9938 6.42871 12.8572 6.42871C11.7205 6.42871 10.6304 6.88024 9.8267 7.68397C9.02297 8.48769 8.57144 9.57778 8.57144 10.7144C8.57144 11.8511 9.02297 12.9412 9.8267 13.7449C10.6304 14.5486 11.7205 15.0001 12.8572 15.0001ZM4.42001 21.5773C5.48973 20.4038 6.79278 19.4668 8.24569 18.8262C9.69859 18.1856 11.2693 17.8556 12.8572 17.8573C14.445 17.8556 16.0157 18.1856 17.4686 18.8262C18.9215 19.4668 20.2246 20.4038 21.2943 21.5773C22.0372 22.3887 21.38 23.5716 20.28 23.5716H5.4343C4.3343 23.5716 3.67715 22.3887 4.42001 21.5773ZM25.3572 10.7144C25.3572 9.72871 26.1572 8.92871 27.1429 8.92871H32.8572C33.3308 8.92871 33.785 9.11685 34.1198 9.45173C34.4547 9.78662 34.6429 10.2408 34.6429 10.7144C34.6429 11.188 34.4547 11.6422 34.1198 11.9771C33.785 12.312 33.3308 12.5001 32.8572 12.5001H27.1429C26.6693 12.5001 26.2151 12.312 25.8802 11.9771C25.5453 11.6422 25.3572 11.188 25.3572 10.7144ZM27.1429 17.5001C26.6693 17.5001 26.2151 17.6883 25.8802 18.0232C25.5453 18.358 25.3572 18.8123 25.3572 19.2859C25.3572 19.7595 25.5453 20.2137 25.8802 20.5485C26.2151 20.8834 26.6693 21.0716 27.1429 21.0716H32.8572C33.3308 21.0716 33.785 20.8834 34.1198 20.5485C34.4547 20.2137 34.6429 19.7595 34.6429 19.2859C34.6429 18.8123 34.4547 18.358 34.1198 18.0232C33.785 17.6883 33.3308 17.5001 32.8572 17.5001H27.1429Z" fill="#0193EB"/>
</svg>
