<svg width="24" height="24" viewBox="0 0 24 24" fill="none" xmlns="http://www.w3.org/2000/svg">
<g clip-path="url(#clip0_80_3996)">
<path d="M4.28566 1.36713e-06C3.60368 1.36713e-06 2.94962 0.270919 2.46739 0.753155C1.98515 1.23539 1.71423 1.88944 1.71423 2.57143V21.4286C1.71423 22.1106 1.98515 22.7646 2.46739 23.2468C2.94962 23.7291 3.60368 24 4.28566 24H19.7142C20.0519 24 20.3863 23.9335 20.6983 23.8043C21.0103 23.675 21.2937 23.4856 21.5325 23.2468C21.7713 23.0081 21.9607 22.7246 22.0899 22.4126C22.2192 22.1006 22.2857 21.7663 22.2857 21.4286V7.71429C22.2859 7.60165 22.2639 7.49008 22.2209 7.38595C22.178 7.28182 22.1149 7.18718 22.0354 7.10743L15.1782 0.250287C15.0985 0.170741 15.0038 0.107693 14.8997 0.0647472C14.7956 0.0218014 14.684 -0.000199799 14.5714 1.36713e-06H4.28566Z" fill="#8DD4FE"/>
<path fill-rule="evenodd" clip-rule="evenodd" d="M10.2513 5.0177C10.2513 5.4835 10.0663 5.93022 9.73692 6.25958C9.40755 6.58895 8.96083 6.77399 8.49503 6.77399C8.02924 6.77399 7.58252 6.58895 7.25315 6.25958C6.92379 5.93022 6.73875 5.4835 6.73875 5.0177C6.73875 4.55168 6.92388 4.10474 7.2534 3.77521C7.58293 3.44569 8.02987 3.26056 8.49589 3.26056C8.96192 3.26056 9.40885 3.44569 9.73838 3.77521C10.0679 4.10474 10.253 4.55168 10.253 5.0177H10.2513ZM5.99989 13.5C5.85919 13.5002 5.71991 13.5281 5.59 13.5822C5.4601 13.6363 5.34211 13.7154 5.24278 13.815C5.14345 13.9147 5.06472 14.0329 5.01108 14.163C4.95744 14.2931 4.92995 14.4324 4.93018 14.5731C4.9304 14.7138 4.95834 14.8531 5.01239 14.983C5.06644 15.1129 5.14555 15.2309 5.2452 15.3302C5.34485 15.4296 5.46309 15.5083 5.59317 15.5619C5.72325 15.6156 5.86262 15.6431 6.00332 15.6428H18.0033C18.144 15.6426 18.2833 15.6147 18.4132 15.5606C18.5431 15.5066 18.6611 15.4275 18.7604 15.3278C18.8598 15.2282 18.9385 15.1099 18.9921 14.9799C19.0458 14.8498 19.0733 14.7104 19.073 14.5697C19.0728 14.429 19.0449 14.2897 18.9908 14.1598C18.9368 14.0299 18.8577 13.9119 18.758 13.8126C18.6584 13.7133 18.5401 13.6345 18.41 13.5809C18.28 13.5273 18.1406 13.4998 17.9999 13.5H5.99989ZM5.99989 18.6428C5.85919 18.6431 5.71991 18.671 5.59 18.7251C5.4601 18.7791 5.34211 18.8582 5.24278 18.9579C5.14345 19.0575 5.06472 19.1758 5.01108 19.3058C4.95744 19.4359 4.92995 19.5753 4.93018 19.716C4.9304 19.8567 4.95834 19.996 5.01239 20.1259C5.06644 20.2558 5.14555 20.3738 5.2452 20.4731C5.34485 20.5724 5.46309 20.6512 5.59317 20.7048C5.72325 20.7584 5.86262 20.7859 6.00332 20.7857H12.8605C13.0012 20.7855 13.1404 20.7575 13.2704 20.7035C13.4003 20.6494 13.5182 20.5703 13.6176 20.4707C13.7169 20.371 13.7956 20.2528 13.8493 20.1227C13.9029 19.9926 13.9304 19.8533 13.9302 19.7126C13.93 19.5719 13.902 19.4326 13.848 19.3027C13.7939 19.1728 13.7148 19.0548 13.6152 18.9554C13.5155 18.8561 13.3973 18.7774 13.2672 18.7237C13.1371 18.6701 12.9977 18.6426 12.857 18.6428H5.99989ZM5.37246 9.13713C6.22996 8.36751 7.34196 7.9425 8.49418 7.94399C9.69418 7.94399 10.7879 8.39485 11.6176 9.13713C12.1096 9.5777 11.7256 10.2857 11.0639 10.2857H5.92446C5.26446 10.2857 4.87875 9.5777 5.37246 9.13713Z" fill="#0193EB"/>
</g>
<defs>
<clipPath id="clip0_80_3996">
<rect width="24" height="24" fill="white"/>
</clipPath>
</defs>
</svg>
