<svg width="24" height="24" viewBox="0 0 24 24" fill="none" xmlns="http://www.w3.org/2000/svg">
<g clip-path="url(#clip0_80_4064)">
<path fill-rule="evenodd" clip-rule="evenodd" d="M10.7434 7.22569C11.148 8.06227 11.9263 8.73255 13.0766 8.93141C13.9646 9.0857 14.6709 9.76284 14.8629 10.6423L14.8971 10.7931C15.4971 13.5326 18.7731 14.064 20.4 12.3703H21.4286C21.7663 12.3703 22.1006 12.4368 22.4126 12.566C22.7246 12.6952 23.0081 12.8846 23.2468 13.1234C23.4856 13.3622 23.675 13.6457 23.8043 13.9577C23.9335 14.2696 24 14.604 24 14.9417V18.3703C24 18.708 23.9335 19.0423 23.8043 19.3543C23.675 19.6663 23.4856 19.9498 23.2468 20.1885C23.0081 20.4273 22.7246 20.6167 22.4126 20.746C22.1006 20.8752 21.7663 20.9417 21.4286 20.9417H2.57143C1.88944 20.9417 1.23539 20.6708 0.753154 20.1885C0.270918 19.7063 0 19.0523 0 18.3703V14.9417C0 14.2597 0.270918 13.6057 0.753154 13.1234C1.23539 12.6412 1.88944 12.3703 2.57143 12.3703H4.52571L5.64857 8.97941L5.65029 8.97598C5.82809 8.44785 6.17265 7.99178 6.63209 7.67642C7.09152 7.36106 7.64097 7.20348 8.19771 7.22741H10.7434V7.22569Z" fill="#8DD4FE"/>
<path fill-rule="evenodd" clip-rule="evenodd" d="M3.42517 21.372C3.42517 22.0544 3.69627 22.7089 4.17883 23.1915C4.66139 23.674 5.31587 23.9451 5.99831 23.9451C6.68075 23.9451 7.33524 23.674 7.8178 23.1915C8.30036 22.7089 8.57146 22.0544 8.57146 21.372C8.57146 20.6896 8.30036 20.0351 7.8178 19.5525C7.33524 19.07 6.68075 18.7989 5.99831 18.7989C5.31587 18.7989 4.66139 19.07 4.17883 19.5525C3.69627 20.0351 3.42517 20.6896 3.42517 21.372ZM15.4252 21.372C15.4252 21.7099 15.4917 22.0445 15.621 22.3567C15.7504 22.6689 15.9399 22.9525 16.1788 23.1915C16.4178 23.4304 16.7014 23.62 17.0136 23.7493C17.3258 23.8786 17.6604 23.9451 17.9983 23.9451C18.3362 23.9451 18.6708 23.8786 18.983 23.7493C19.2952 23.62 19.5789 23.4304 19.8178 23.1915C20.0567 22.9525 20.2463 22.6689 20.3756 22.3567C20.5049 22.0445 20.5715 21.7099 20.5715 21.372C20.5715 20.6896 20.3004 20.0351 19.8178 19.5525C19.3352 19.07 18.6808 18.7989 17.9983 18.7989C17.3159 18.7989 16.6614 19.07 16.1788 19.5525C15.6963 20.0351 15.4252 20.6896 15.4252 21.372Z" fill="#0193EB"/>
<path fill-rule="evenodd" clip-rule="evenodd" d="M19.3989 1.12285C19.0731 -0.306862 17.0297 -0.300005 16.716 1.13485L16.704 1.19142L16.68 1.30285C16.5039 2.09115 16.0977 2.80943 15.513 3.36669C14.9283 3.92394 14.1913 4.2951 13.3954 4.43314C11.904 4.69371 11.904 6.83657 13.3954 7.09542C14.1944 7.23416 14.9339 7.60782 15.5195 8.16873C16.1052 8.72963 16.5104 9.45233 16.6834 10.2446L16.7177 10.3937C17.0297 11.8286 19.0714 11.8371 19.3971 10.4057L19.4383 10.2309C19.6185 9.44172 20.0279 8.72344 20.615 8.16621C21.2021 7.60898 21.9408 7.23765 22.7383 7.09885C24.2331 6.83828 24.2331 4.692 22.7383 4.43142C21.9218 4.28987 21.1672 3.90467 20.5737 3.32642C19.9802 2.74818 19.5754 2.00392 19.4126 1.19142L19.3989 1.12285Z" fill="#0193EB"/>
</g>
<defs>
<clipPath id="clip0_80_4064">
<rect width="24" height="24" fill="white"/>
</clipPath>
</defs>
</svg>
