<svg width="24" height="24" viewBox="0 0 24 24" fill="none" xmlns="http://www.w3.org/2000/svg">
<g clip-path="url(#clip0_80_3991)">
<path fill-rule="evenodd" clip-rule="evenodd" d="M0.857143 4.28571C0.857143 3.14907 1.30867 2.05898 2.1124 1.25526C2.91613 0.451529 4.00622 0 5.14286 0C6.2795 0 7.36959 0.451529 8.17332 1.25526C8.97704 2.05898 9.42857 3.14907 9.42857 4.28571C9.42857 5.42236 8.97704 6.51244 8.17332 7.31617C7.36959 8.1199 6.2795 8.57143 5.14286 8.57143C4.00622 8.57143 2.91613 8.1199 2.1124 7.31617C1.30867 6.51244 0.857143 5.42236 0.857143 4.28571ZM0.857143 10.2857C0.629814 10.2857 0.411797 10.376 0.251051 10.5368C0.0903059 10.6975 0 10.9155 0 11.1429L0 11.1463V11.1531V11.1823V11.2886L0.00857143 11.6811C0.0171429 12.0171 0.0342857 12.4954 0.0685714 13.0697C0.137143 14.2131 0.274286 15.7491 0.548571 17.2937C0.822857 18.8246 1.24286 20.4291 1.90971 21.672C2.56629 22.8994 3.59657 24 5.14286 24C6.68914 24 7.71943 22.8994 8.376 21.672C9.04286 20.4291 9.46286 18.8246 9.73714 17.2937C10.0114 15.7491 10.1486 14.2131 10.2171 13.068C10.2528 12.4754 10.2757 11.8821 10.2857 11.2886V11.1823V11.1531V11.1463V11.1446L9.42857 11.1429H10.2857C10.2857 11.0303 10.2635 10.9188 10.2205 10.8148C10.1774 10.7108 10.1143 10.6164 10.0347 10.5368C9.95507 10.4572 9.86058 10.394 9.75659 10.351C9.65259 10.3079 9.54113 10.2857 9.42857 10.2857H0.857143ZM14.5714 4.28571C14.5714 3.14907 15.023 2.05898 15.8267 1.25526C16.6304 0.451529 17.7205 0 18.8571 0C19.9938 0 21.0839 0.451529 21.8876 1.25526C22.6913 2.05898 23.1429 3.14907 23.1429 4.28571C23.1429 5.42236 22.6913 6.51244 21.8876 7.31617C21.0839 8.1199 19.9938 8.57143 18.8571 8.57143C17.7205 8.57143 16.6304 8.1199 15.8267 7.31617C15.023 6.51244 14.5714 5.42236 14.5714 4.28571ZM18.8571 10.2857C17.3109 10.2857 16.2806 11.3863 15.624 12.6137C14.9571 13.8566 14.5371 15.4611 14.2629 16.992C13.9886 18.5366 13.8514 20.0726 13.7829 21.216C13.7472 21.8097 13.7243 22.4041 13.7143 22.9989V23.1034V23.1309V23.1394V23.1411L14.5714 23.1429H13.7143C13.7143 23.3702 13.8046 23.5882 13.9653 23.7489C14.1261 23.9097 14.3441 24 14.5714 24H23.1429C23.3702 24 23.5882 23.9097 23.7489 23.7489C23.9097 23.5882 24 23.3702 24 23.1429V23.1394V23.1309V23.1034V22.9971L23.9914 22.6063C23.9792 22.1431 23.9592 21.6802 23.9314 21.2177C23.8629 20.0726 23.7257 18.5366 23.4514 16.992C23.1771 15.4611 22.7571 13.8566 22.0903 12.6137C21.4337 11.3863 20.4034 10.2857 18.8571 10.2857Z" fill="#8DD4FE"/>
</g>
<defs>
<clipPath id="clip0_80_3991">
<rect width="24" height="24" fill="white"/>
</clipPath>
</defs>
</svg>
