<svg width="24" height="24" viewBox="0 0 24 24" fill="none" xmlns="http://www.w3.org/2000/svg">
<g clip-path="url(#clip0_80_3994)">
<path fill-rule="evenodd" clip-rule="evenodd" d="M11.9999 0.0856934C11.659 0.0856934 11.3319 0.221152 11.0908 0.46227C10.8497 0.703389 10.7142 1.03041 10.7142 1.37141V5.49598L11.5868 4.75712C11.7416 4.62614 11.9378 4.55427 12.1405 4.55427C12.3433 4.55427 12.5395 4.62614 12.6942 4.75712L13.2857 5.25769V2.65884H14.3502C14.6912 2.65884 15.0183 2.52338 15.2594 2.28226C15.5005 2.04114 15.6359 1.71411 15.6359 1.37312C15.6359 1.03213 15.5005 0.705103 15.2594 0.463985C15.0183 0.222866 14.6912 0.0874076 14.3502 0.0874076H11.9999V0.0856934Z" fill="#8DD4FE"/>
<path fill-rule="evenodd" clip-rule="evenodd" d="M11.5868 4.75711C11.7416 4.62613 11.9378 4.55426 12.1406 4.55426C12.3433 4.55426 12.5395 4.62613 12.6943 4.75711L21.3566 12.1011H2.92456L11.5886 4.75711H11.5868Z" fill="#0193EB"/>
<path fill-rule="evenodd" clip-rule="evenodd" d="M1.58051 12.1028C1.23952 12.1028 0.912495 12.2383 0.671377 12.4794C0.430259 12.7205 0.2948 13.0476 0.2948 13.3886C0.2948 13.7296 0.430259 14.0566 0.671377 14.2977C0.912495 14.5388 1.23952 14.6743 1.58051 14.6743H1.91651V21.4183H1.58051C1.23952 21.4183 0.912495 21.5537 0.671377 21.7949C0.430259 22.036 0.2948 22.363 0.2948 22.704C0.2948 23.045 0.430259 23.372 0.671377 23.6131C0.912495 23.8542 1.23952 23.9897 1.58051 23.9897H22.7005C23.0415 23.9897 23.3685 23.8542 23.6097 23.6131C23.8508 23.372 23.9862 23.045 23.9862 22.704C23.9862 22.363 23.8508 22.036 23.6097 21.7949C23.3685 21.5537 23.0415 21.4183 22.7005 21.4183H22.3645V14.6726H22.7005C23.0415 14.6726 23.3685 14.5371 23.6097 14.296C23.8508 14.0549 23.9862 13.7278 23.9862 13.3868C23.9862 13.0459 23.8508 12.7188 23.6097 12.4777C23.3685 12.2366 23.0415 12.1011 22.7005 12.1011H1.58051V12.1028Z" fill="#8DD4FE"/>
<path fill-rule="evenodd" clip-rule="evenodd" d="M16.9474 14.6743H19.0902V21.4183H16.9474V14.6725V14.6743ZM4.90967 14.6743H7.05253V21.4183H4.90967V14.6725V14.6743ZM13.6405 21.4183H10.4485V17.8011C10.4485 17.5915 10.4898 17.384 10.57 17.1904C10.6502 16.9967 10.7678 16.8208 10.916 16.6726C11.0642 16.5244 11.2401 16.4068 11.4338 16.3266C11.6274 16.2464 11.8349 16.2051 12.0445 16.2051C12.2541 16.2051 12.4617 16.2464 12.6553 16.3266C12.8489 16.4068 13.0249 16.5244 13.1731 16.6726C13.3213 16.8208 13.4388 16.9967 13.519 17.1904C13.5992 17.384 13.6405 17.5915 13.6405 17.8011V21.4183Z" fill="#0193EB"/>
</g>
<defs>
<clipPath id="clip0_80_3994">
<rect width="24" height="24" fill="white"/>
</clipPath>
</defs>
</svg>
