<svg width="24" height="24" viewBox="0 0 24 24" fill="none" xmlns="http://www.w3.org/2000/svg">
<g clip-path="url(#clip0_80_4062)">
<path d="M0 5.14287C0 4.68822 0.180612 4.25218 0.502103 3.93069C0.823594 3.6092 1.25963 3.42859 1.71429 3.42859H22.2857C22.7404 3.42859 23.1764 3.6092 23.4979 3.93069C23.8194 4.25218 24 4.68822 24 5.14287V18.8572C24 19.0823 23.9557 19.3052 23.8695 19.5132C23.7834 19.7212 23.6571 19.9102 23.4979 20.0693C23.3387 20.2285 23.1497 20.3548 22.9417 20.441C22.7338 20.5271 22.5108 20.5714 22.2857 20.5714H1.71429C1.48916 20.5714 1.26624 20.5271 1.05826 20.441C0.85027 20.3548 0.661289 20.2285 0.502103 20.0693C0.342917 19.9102 0.216643 19.7212 0.130492 19.5132C0.0443413 19.3052 0 19.0823 0 18.8572L0 5.14287Z" fill="#8DD4FE"/>
<path fill-rule="evenodd" clip-rule="evenodd" d="M7.71434 12C8.39633 12 9.05038 11.7291 9.53262 11.2469C10.0149 10.7646 10.2858 10.1106 10.2858 9.42861C10.2858 8.74662 10.0149 8.09257 9.53262 7.61033C9.05038 7.1281 8.39633 6.85718 7.71434 6.85718C7.03236 6.85718 6.3783 7.1281 5.89607 7.61033C5.41383 8.09257 5.14291 8.74662 5.14291 9.42861C5.14291 10.1106 5.41383 10.7646 5.89607 11.2469C6.3783 11.7291 7.03236 12 7.71434 12ZM2.65206 15.9463C3.29388 15.2422 4.07572 14.68 4.94746 14.2957C5.8192 13.9113 6.76163 13.7133 7.71434 13.7143C8.66706 13.7133 9.60948 13.9113 10.4812 14.2957C11.353 14.68 12.1348 15.2422 12.7766 15.9463C13.2223 16.4332 12.8281 17.1429 12.1681 17.1429H3.26063C2.60063 17.1429 2.20634 16.4332 2.65206 15.9463ZM15.2143 9.42861C15.2143 8.83718 15.6943 8.35718 16.2858 8.35718H19.7143C19.9985 8.35718 20.271 8.47006 20.472 8.67099C20.6729 8.87192 20.7858 9.14445 20.7858 9.42861C20.7858 9.71277 20.6729 9.98529 20.472 10.1862C20.271 10.3872 19.9985 10.5 19.7143 10.5H16.2858C16.0016 10.5 15.7291 10.3872 15.5282 10.1862C15.3272 9.98529 15.2143 9.71277 15.2143 9.42861ZM16.2858 13.5C16.0016 13.5 15.7291 13.6129 15.5282 13.8138C15.3272 14.0148 15.2143 14.2873 15.2143 14.5715C15.2143 14.8556 15.3272 15.1281 15.5282 15.3291C15.7291 15.53 16.0016 15.6429 16.2858 15.6429H19.7143C19.9985 15.6429 20.271 15.53 20.472 15.3291C20.6729 15.1281 20.7858 14.8556 20.7858 14.5715C20.7858 14.2873 20.6729 14.0148 20.472 13.8138C20.271 13.6129 19.9985 13.5 19.7143 13.5H16.2858Z" fill="#0193EB"/>
</g>
<defs>
<clipPath id="clip0_80_4062">
<rect width="24" height="24" fill="white"/>
</clipPath>
</defs>
</svg>
