<svg width="24" height="24" viewBox="0 0 24 24" fill="none" xmlns="http://www.w3.org/2000/svg">
<g clip-path="url(#clip0_80_3993)">
<path fill-rule="evenodd" clip-rule="evenodd" d="M9.42857 3.42857C9.42857 4.33788 9.06735 5.20996 8.42437 5.85294C7.78138 6.49592 6.90931 6.85714 6 6.85714C5.09069 6.85714 4.21862 6.49592 3.57563 5.85294C2.93265 5.20996 2.57143 4.33788 2.57143 3.42857C2.57143 2.51926 2.93265 1.64719 3.57563 1.00421C4.21862 0.361223 5.09069 0 6 0C6.90931 0 7.78138 0.361223 8.42437 1.00421C9.06735 1.64719 9.42857 2.51926 9.42857 3.42857ZM9.50571 17.0914V17.1429H9.42857L8.66571 23.2491C8.63981 23.4564 8.53912 23.6471 8.38255 23.7853C8.22598 23.9236 8.02431 23.9999 7.81543 24H4.18286C3.97398 23.9999 3.77231 23.9236 3.61574 23.7853C3.45917 23.6471 3.35847 23.4564 3.33257 23.2491L2.57143 17.1429H0.857143C0.629815 17.1429 0.411797 17.0526 0.251052 16.8918C0.0903063 16.7311 4.39325e-07 16.513 4.39325e-07 16.2857V14.5714C-0.000560769 13.1041 0.536575 11.6875 1.50983 10.5894C2.48308 9.49131 3.82497 8.78794 5.28172 8.61228C6.73848 8.43663 8.20911 8.80087 9.41548 9.63613C10.6219 10.4714 11.4803 11.7198 11.8286 13.1451C11.1245 13.5358 10.5378 14.1078 10.1293 14.8017C9.72086 15.4956 9.50555 16.2862 9.50571 17.0914Z" fill="#8DD4FE"/>
<path fill-rule="evenodd" clip-rule="evenodd" d="M16.5893 13.6063C16.5893 13.4926 16.6344 13.3836 16.7148 13.3032C16.7952 13.2229 16.9042 13.1777 17.0178 13.1777H18.583C18.6966 13.1777 18.8056 13.2229 18.886 13.3032C18.9664 13.3836 19.0115 13.4926 19.0115 13.6063V14.7223H16.5893V13.608V13.6063ZM14.0178 14.7223V13.608C14.0178 11.9503 15.3618 10.608 17.0178 10.608H18.583C20.239 10.608 21.583 11.9503 21.583 13.608V14.7223C22.891 14.7223 23.9504 15.7851 23.9504 17.0931V21.6309C23.9504 22.9389 22.8893 24 21.5813 24H14.0178C13.3895 24 12.7869 23.7504 12.3426 23.3061C11.8983 22.8618 11.6487 22.2592 11.6487 21.6309V17.0914C11.6487 15.7834 12.7098 14.7223 14.0178 14.7223Z" fill="#0193EB"/>
</g>
<defs>
<clipPath id="clip0_80_3993">
<rect width="24" height="24" fill="white"/>
</clipPath>
</defs>
</svg>
