<svg width="24" height="24" viewBox="0 0 24 24" fill="none" xmlns="http://www.w3.org/2000/svg">
<g clip-path="url(#clip0_80_4061)">
<path d="M8.57145 12.8571C9.93542 12.8571 11.2435 12.3153 12.208 11.3508C13.1725 10.3863 13.7143 9.07824 13.7143 7.71427C13.7143 6.3503 13.1725 5.04219 12.208 4.07772C11.2435 3.11325 9.93542 2.57141 8.57145 2.57141C7.20747 2.57141 5.89937 3.11325 4.9349 4.07772C3.97042 5.04219 3.42859 6.3503 3.42859 7.71427C3.42859 9.07824 3.97042 10.3863 4.9349 11.3508C5.89937 12.3153 7.20747 12.8571 8.57145 12.8571Z" fill="#8DD4FE"/>
<path d="M0 23.1428C0 20.8696 0.903059 18.6894 2.51051 17.0819C4.11797 15.4745 6.29814 14.5714 8.57143 14.5714C10.8447 14.5714 13.0249 15.4745 14.6323 17.0819C16.2398 18.6894 17.1429 20.8696 17.1429 23.1428C17.1429 23.3702 17.0526 23.5882 16.8918 23.7489C16.7311 23.9097 16.513 24 16.2857 24H0.857143C0.629814 24 0.411797 23.9097 0.251051 23.7489C0.0903059 23.5882 0 23.3702 0 23.1428Z" fill="#8DD4FE"/>
<path fill-rule="evenodd" clip-rule="evenodd" d="M19.1623 24H23.1428C23.3702 24 23.5882 23.9097 23.7489 23.7489C23.9097 23.5882 24 23.3702 24 23.1428C23.9999 21.9823 23.7642 20.8339 23.3072 19.7672C22.8501 18.7004 22.1811 17.7376 21.3409 16.9371C20.5006 16.1366 19.5066 15.5151 18.419 15.1102C17.3314 14.7053 16.1729 14.5255 15.0137 14.5817C16.3414 15.5792 17.4187 16.8721 18.1602 18.358C18.9017 19.844 19.287 21.4822 19.2857 23.1428C19.2857 23.4411 19.2428 23.7291 19.1623 24ZM13.9406 12.6394C14.7087 12.8708 15.5203 12.9193 16.3105 12.781C17.1007 12.6427 17.8476 12.3214 18.4915 11.8429C19.1354 11.3644 19.6584 10.7419 20.0188 10.0252C20.3791 9.30845 20.5668 8.51735 20.5668 7.71512C20.5668 6.9129 20.3791 6.1218 20.0188 5.40506C19.6584 4.68832 19.1354 4.06581 18.4915 3.58731C17.8476 3.1088 17.1007 2.78756 16.3105 2.64926C15.5203 2.51097 14.7087 2.55945 13.9406 2.79084C15.1751 4.13303 15.8593 5.89066 15.8571 7.71427C15.8597 9.53846 15.1755 11.2968 13.9406 12.6394Z" fill="#0193EB"/>
</g>
<defs>
<clipPath id="clip0_80_4061">
<rect width="24" height="24" fill="white"/>
</clipPath>
</defs>
</svg>
