<svg width="24" height="24" viewBox="0 0 24 24" fill="none" xmlns="http://www.w3.org/2000/svg">
<g clip-path="url(#clip0_80_4063)">
<path fill-rule="evenodd" clip-rule="evenodd" d="M5.18052 12.9326L4.3988 12.288L3.89309 13.1657L0.114803 19.7109C0.0306638 19.8576 -0.00818531 20.0259 0.00314723 20.1947C0.0144798 20.3635 0.0754873 20.5251 0.178489 20.6593C0.28149 20.7934 0.421881 20.8941 0.581986 20.9486C0.742091 21.0032 0.914753 21.0091 1.07823 20.9657L4.33366 20.0949L5.20452 23.3486C5.24852 23.5123 5.34006 23.6593 5.46758 23.7709C5.5951 23.8826 5.75287 23.954 5.92094 23.976C6.08901 23.998 6.25984 23.9697 6.41182 23.8946C6.56381 23.8196 6.69012 23.7011 6.7748 23.5543L10.0542 17.8783L10.4159 17.2492L9.85709 16.7863L5.18052 12.9326ZM18.8194 12.9326L19.6011 12.288L20.1068 13.1657L23.8851 19.7109C23.9695 19.8577 24.0084 20.0263 23.9971 20.1953C23.9857 20.3643 23.9245 20.5261 23.8213 20.6604C23.718 20.7946 23.5773 20.8953 23.4169 20.9496C23.2565 21.004 23.0835 21.0096 22.9199 20.9657L19.6662 20.0949L18.7937 23.3486C18.7497 23.5123 18.6581 23.6593 18.5306 23.7709C18.4031 23.8826 18.2453 23.954 18.0772 23.976C17.9092 23.998 17.7383 23.9697 17.5864 23.8946C17.4344 23.8196 17.3081 23.7011 17.2234 23.5543L13.9457 17.88L13.5822 17.2509L14.1428 16.788L18.8194 12.9343V12.9326Z" fill="#0193EB"/>
<path fill-rule="evenodd" clip-rule="evenodd" d="M11.9948 0.0154419C9.6647 0.0154419 7.43002 0.941077 5.78238 2.58872C4.13474 4.23636 3.20911 6.47104 3.20911 8.80116C3.20911 11.1313 4.13474 13.366 5.78238 15.0136C7.43002 16.6612 9.6647 17.5869 11.9948 17.5869C14.3249 17.5869 16.5596 16.6612 18.2073 15.0136C19.8549 13.366 20.7805 11.1313 20.7805 8.80116C20.7805 6.47104 19.8549 4.23636 18.2073 2.58872C16.5596 0.941077 14.3249 0.0154419 11.9948 0.0154419Z" fill="#8DD4FE"/>
<path d="M12.3428 4.17085L13.5137 6.52456C13.5397 6.58398 13.581 6.63544 13.6334 6.67369C13.6858 6.71193 13.7474 6.7356 13.8119 6.74227L16.4108 7.13656C16.4852 7.14607 16.5554 7.17662 16.613 7.22462C16.6707 7.27262 16.7135 7.33607 16.7363 7.40753C16.7592 7.47899 16.7612 7.55548 16.7421 7.62804C16.723 7.70059 16.6836 7.76619 16.6285 7.81713L14.7102 9.64113C14.6817 9.69561 14.6668 9.7562 14.6668 9.8177C14.6668 9.87921 14.6817 9.93979 14.7102 9.99427L15.0771 12.5811C15.0925 12.6556 15.0861 12.7329 15.0586 12.8038C15.0311 12.8746 14.9837 12.9361 14.9221 12.9806C14.8605 13.0252 14.7874 13.051 14.7115 13.0549C14.6355 13.0589 14.5601 13.0408 14.4942 13.0028L12.1799 11.7771C12.1199 11.7499 12.0547 11.7358 11.9888 11.7358C11.9229 11.7358 11.8577 11.7499 11.7977 11.7771L9.48337 13.0028C9.41749 13.0408 9.34205 13.0589 9.26613 13.0549C9.19021 13.051 9.11705 13.0252 9.05546 12.9806C8.99387 12.9361 8.94648 12.8746 8.91898 12.8038C8.89149 12.7329 8.88508 12.6556 8.90051 12.5811L9.33423 9.99427C9.3528 9.93432 9.35626 9.8707 9.3443 9.80909C9.33234 9.74747 9.30532 9.68977 9.26566 9.64113L7.34908 7.80342C7.29805 7.75192 7.2622 7.68734 7.24549 7.61679C7.22877 7.54624 7.23183 7.47244 7.25433 7.40352C7.27684 7.33459 7.31791 7.2732 7.37303 7.22611C7.42816 7.17901 7.4952 7.14803 7.5668 7.13656L10.1674 6.75599C10.2319 6.74931 10.2935 6.72565 10.3459 6.6874C10.3983 6.64915 10.4396 6.5977 10.4657 6.53827L11.6365 4.18285C11.6678 4.11607 11.7173 4.05943 11.7792 4.01935C11.8411 3.97927 11.913 3.95736 11.9868 3.95611C12.0605 3.95486 12.1331 3.97432 12.1964 4.01228C12.2596 4.05024 12.3109 4.10517 12.3445 4.17085H12.3428Z" fill="#0193EB"/>
</g>
<defs>
<clipPath id="clip0_80_4063">
<rect width="24" height="24" fill="white"/>
</clipPath>
</defs>
</svg>
